PathFileType	4	(X/Y/Z)	C:\Users\Biomechanik\SynologyDrive\AlexP\Athlete_03\Athlete_3_25_03_31\Walking_01\marker_experimental.trc
DataRate	CameraRate	NumFrames	NumMarkers	Units	OrigDataRate	OrigDataStartFrame	OrigNumFrames
200.000000	200.000000	4	53	mm	200.000000	89	239
Frame#	Time	GLAB			RFHD			LFHD			C7			T6			SPINMOL			SPINM2			SPINM3			T12			BELTOL			BELT2			BELT3			SACROL			SACR2			SACR3			LTHOL			LTH2			LTH3			LSHAOL			LSHA2			LSHA3			LHEE			LTOE			LM5			RTHOL			RTH2			RTH3			RSHAOL			RSHA2			RSHA3			RHEE			RTOE			RM5			STRN			XIPH			LACR			LUAOL			LUA2			LUA3			LLAOL			LLA2			LLA3			LWRR			LWRU			RACR			RUAOL			RUA2			RUA3			RLAOL			RLA2			RLA3			RWRR			RWRU			
		X1	Y1	Z1	X2	Y2	Z2	X3	Y3	Z3	X4	Y4	Z4	X5	Y5	Z5	X6	Y6	Z6	X7	Y7	Z7	X8	Y8	Z8	X9	Y9	Z9	X10	Y10	Z10	X11	Y11	Z11	X12	Y12	Z12	X13	Y13	Z13	X14	Y14	Z14	X15	Y15	Z15	X16	Y16	Z16	X17	Y17	Z17	X18	Y18	Z18	X19	Y19	Z19	X20	Y20	Z20	X21	Y21	Z21	X22	Y22	Z22	X23	Y23	Z23	X24	Y24	Z24	X25	Y25	Z25	X26	Y26	Z26	X27	Y27	Z27	X28	Y28	Z28	X29	Y29	Z29	X30	Y30	Z30	X31	Y31	Z31	X32	Y32	Z32	X33	Y33	Z33	X34	Y34	Z34	X35	Y35	Z35	X36	Y36	Z36	X37	Y37	Z37	X38	Y38	Z38	X39	Y39	Z39	X40	Y40	Z40	X41	Y41	Z41	X42	Y42	Z42	X43	Y43	Z43	X44	Y44	Z44	X45	Y45	Z45	X46	Y46	Z46	X47	Y47	Z47	X48	Y48	Z48	X49	Y49	Z49	X50	Y50	Z50	X51	Y51	Z51	X52	Y52	Z52	X53	Y53	Z53	

90	0.445	84.8615570068358	1605.356323242188	254.4402465820313	34.69041061401352	1630.6796875	319.0265808105469	39.58089828491197	1624.740234375	181.294189453125	-138.4389038085939	1441.74462890625	254.9212341308593	-200.8144531250001	1275.003173828125	252.9325408935547	-209.7850036621095	1234.87158203125	231.3114776611328	-215.0509185791017	1227.37060546875	281.1589355468749	-206.9681243896486	1170.69580078125	246.9213104248047	-184.0723419189454	1103.760009765625	247.1007385253906	-221.3957672119141	1069.234375	226.9828338623047	-223.7040405273439	1067.398803710938	277.9772033691406	-227.2201080322267	1006.975952148438	247.9846496582031	-206.8243713378907	955.8272705078125	220.496353149414	-209.6231079101564	954.2002563476562	272.3038330078124	-223.2928619384767	895.5841064453125	243.7335662841797	-7.39406681060796	680.7987670898438	43.96402740478516	-26.47187614440923	607.2542724609375	64.99839782714844	18.72843933105464	625.5969848632812	52.86967468261719	45.05434417724607	356.1270446777344	48.33721542358399	-3.930122852325471	297.6776428222656	70.08395385742188	44.86791992187496	294.9208068847656	58.24599838256837	-21.06928253173832	105.3989868164062	158.3584289550781	197.8451232910156	77.8379364013672	136.9795532226563	145.6977996826172	48.92545318603516	49.27636718750003	-159.9207305908205	696.34765625	426.9728393554687	-111.4875640869142	633.1963500976562	430.6697082519531	-159.0432128906251	636.3534545898438	415.1278991699218	-231.6437988281251	349.8000183105469	400.1948242187499	-207.9764099121095	274.3813781738281	397.0465393066406	-252.9271697998048	293.1260986328125	385.4770507812499	-312.9111022949219	83.50479888916014	274.1504211425781	-105.8772354125977	44.07552337646484	287.1419677734375	-159.4371032714845	39.12925338745116	388.3937377929687	28.74166107177722	1336.788940429688	248.1686401367188	41.09873199462879	1191.7529296875	250.1704406738281	-69.95972442626963	1401.916625976562	77.44866943359374	-102.5194320678712	1249.952880859375	-24.80044174194338	-125.320915222168	1190.2255859375	-42.17666625976565	-76.44883728027351	1189.762817382812	-27.61569404602052	-110.9499130249024	987.0611572265625	-75.72437286376955	-147.8128814697266	920.408935546875	-54.50755310058597	-104.0271835327149	925.7255859375	-78.01145172119142	-84.01490020751957	823.4224243164062	-85.50442504882814	-29.809253692627	824.9269409179688	-28.43115997314454	-47.20032119750993	1395.7763671875	418.9221801757812	-37.54185104370135	1253.177368164062	524.285400390625	-0.6705980300905027	1198.120727539062	529.3595581054688	-48.40179824829119	1193.328735351562	548.7681274414062	66.65319061279281	994.337890625	568.8851928710938	144.6297607421873	977.9127197265625	573.7063598632812	107.1597976684569	947.8416748046875	560.1652221679688	182.3695831298826	896.7744750976562	550.9382934570312	208.009811401367	911.6781005859375	474.7025756835938	
91	0.45	91.45380401611314	1604.3076171875	253.8028869628907	41.2537002563475	1629.668579101562	318.3458557128906	46.20724487304674	1623.560546875	180.6030578613281	-131.7723693847658	1440.753051757812	254.4085083007812	-194.3364105224611	1274.10693359375	252.3293762207031	-203.3300628662111	1233.976684570312	230.6803283691406	-208.7642517089845	1226.492919921875	280.5397033691406	-200.6774139404298	1169.81201171875	246.2866516113281	-177.8634796142579	1102.8076171875	246.4335784912109	-215.0586242675782	1068.184448242188	226.2660369873047	-217.5414428710939	1066.453369140625	277.2969055175781	-221.0413665771486	1005.965148925781	247.3501892089843	-200.6246032714845	954.8196411132812	219.9287414550781	-203.5637359619142	953.3689575195312	271.7644653320312	-217.3684539794923	894.708984375	243.309341430664	-1.341575264930775	678.9306030273438	44.94815063476562	-20.2651691436768	605.6145629882812	66.80612945556641	24.84098243713374	623.8238525390625	54.16814422607423	55.95746231079099	352.9415588378906	48.92965698242188	9.018325805664032	292.7911987304688	70.49196624755859	57.75898742675778	291.7114868164062	58.40150451660157	-1.553611755371129	99.52497100830078	157.2266845703125	218.1729278564453	79.51174926757814	135.4623565673828	166.9158325195312	49.24459075927735	47.68792343139651	-155.5628356933595	696.2396240234375	426.8438110351562	-107.6178588867189	632.7188110351562	430.6192321777344	-155.1156616210939	636.230224609375	414.9694213867187	-229.7417602539064	350.1447143554688	399.9941406249999	-206.591278076172	274.5509338378906	396.9346313476562	-251.391342163086	293.6034545898438	385.2990722656249	-312.6333923339844	84.11329650878905	273.9858398437499	-105.831169128418	44.05904388427734	287.0675048828125	-159.3342437744141	39.16281127929687	388.3381652832031	35.27119064331042	1335.465698242188	247.7717132568359	47.34347915649403	1190.414916992188	249.8966827392578	-63.20830917358408	1400.761352539062	76.95119476318358	-96.51483917236335	1248.892944335938	-25.21827507019045	-119.6340255737305	1189.259399414062	-42.51772308349612	-70.73160552978523	1188.564697265625	-28.08716011047365	-106.4225234985352	986.05029296875	-76.08149719238283	-143.6165618896485	919.6271362304688	-54.72727203369143	-99.88262176513676	924.68359375	-78.40471649169923	-80.53645324707036	822.2466430664062	-85.9513397216797	-26.0886497497559	823.4119873046875	-29.11668205261231	-40.66922378540055	1394.7236328125	418.434814453125	-30.80687522888201	1252.371337890625	523.8783569335938	6.351875782012769	1197.538208007812	529.0911254882812	-41.40185928344744	1192.503173828125	548.3820190429688	75.39984130859359	994.4314575195312	568.4398803710938	153.5754089355467	978.9312133789062	572.9442749023438	116.4251403808592	948.4447631835938	559.4839477539062	192.1558990478514	898.2410888671875	549.894775390625	217.5093688964842	913.8049926757812	473.6734619140626	
92	0.455	98.06741333007798	1603.20361328125	253.1407775878907	47.83917236328109	1628.604370117188	317.6416625976562	52.85359954833971	1622.330444335938	179.8887023925781	-125.0956115722658	1439.715087890625	253.8628692626953	-187.8388519287111	1273.15966796875	251.6887054443359	-196.8531341552736	1233.027709960938	230.0135955810547	-202.4650878906251	1225.567138671875	279.8871154785156	-194.3636932373048	1168.8759765625	245.6208343505859	-171.6233673095704	1101.802001953125	245.744888305664	-208.6962890625001	1067.057861328125	225.5771026611328	-211.3378143310548	1065.437866210938	276.6437988281249	-214.8234710693361	1004.880554199219	246.7531127929687	-194.3884887695313	953.7691650390625	219.3575897216797	-197.4677276611329	952.5051879882812	271.2198791503906	-211.4053649902345	893.79541015625	242.8869018554687	4.530913352966258	676.9293212890625	45.9840202331543	-14.26002693176275	603.8848266601562	68.74164581298828	30.73625183105464	621.9100341796875	55.51085281372071	66.81765747070308	349.7867431640625	49.47888183593751	21.97041320800778	287.9975891113281	70.81881713867188	70.60906219482419	288.6005554199219	58.51746749877931	17.98647308349606	93.99268341064453	156.0636749267578	238.256103515625	81.46638488769533	133.9257354736329	187.9147186279297	49.91042709350587	46.07605743408207	-151.2227783203126	696.1382446289062	426.6811218261719	-103.7782745361329	632.2501220703125	430.5954284667969	-151.1998748779298	636.111328125	414.7941284179688	-227.815643310547	350.4951171875	399.8104248046874	-205.1868286132814	274.7278442382812	396.8375854492187	-249.8335113525391	294.0923156738281	385.1370849609374	-312.3584289550782	84.75012207031249	273.8451232910156	-105.7838287353516	44.0504035949707	287.0010375976562	-159.222885131836	39.1857566833496	388.2923583984374	41.81567764282214	1334.096923828125	247.3506317138672	53.61221694946278	1189.033325195312	249.5904541015625	-56.4303092956544	1399.5625	76.42153930664061	-90.43868255615241	1247.781372070312	-25.66272163391115	-113.862289428711	1188.24072265625	-42.89167785644533	-64.93256378173835	1187.320556640625	-28.57799148559571	-101.8012313842774	984.9974975585938	-76.45863342285158	-139.3309936523438	918.8079223632812	-54.97282791137698	-95.64992523193364	923.6021728515625	-78.81959533691408	-76.97434997558598	821.0379638671875	-86.42359924316408	-22.30487823486332	821.8524169921875	-29.81413841247559	-34.13152694702165	1393.614379882812	417.9192504882812	-24.07505989074724	1251.505249023438	523.4349365234375	13.35862159728987	1196.890258789062	528.7877807617188	-34.41598510742205	1191.617065429688	547.9608154296875	84.08299255371078	994.4598388671875	567.9619140625	162.4432373046873	979.8681640625	572.1668090820312	125.6136932373045	948.9693603515625	558.7808837890625	201.8451995849608	899.6334838867188	548.840087890625	226.9130401611327	915.8377685546875	472.6369934082032	
93	0.46	104.7022781372069	1602.047973632812	252.4524230957032	54.44713592529281	1627.490478515625	316.9125366210938	59.51956558227526	1621.053955078125	179.1499176025391	-118.4093399047853	1438.633422851562	253.2824401855468	-181.3215484619142	1272.1640625	251.0105285644531	-190.3535156250001	1232.02734375	229.3115997314453	-196.1516265869142	1224.595825195312	279.2012329101562	-188.0239105224611	1167.889526367188	244.9242858886718	-165.3486175537111	1100.745361328125	245.0356750488281	-202.3086242675782	1065.860595703125	224.9153137207031	-205.0926666259767	1064.356689453125	276.0165710449218	-208.5656738281251	1003.727661132812	246.1916046142578	-188.1125640869141	952.6812744140625	218.778076171875	-191.3340759277345	951.61572265625	270.6644897460937	-205.4022979736329	892.8497924804688	242.4623107910156	10.22679138183589	674.8084106445312	47.06078338623047	-8.451393127441456	602.07666015625	70.784423828125	36.42033004760738	619.8671264648438	56.8869972229004	77.63504791259763	346.6819152832031	49.97779846191408	34.91472244262692	283.322265625	71.05405426025391	83.41008758544919	285.6058959960938	58.59059906005861	37.5106048583984	88.82020568847656	154.8705444335938	258.0628967285156	83.69900512695314	132.387924194336	208.6651153564453	50.91498947143556	44.45694351196293	-146.8955230712892	696.0433349609375	426.4829711914062	-99.96289825439466	631.7920532226562	430.5973815917969	-147.2897796630861	635.996826171875	414.6012573242188	-225.8565979003907	350.8523864746094	399.6430664062499	-203.753875732422	274.9140625	396.7517089843749	-248.2457885742188	294.5941467285156	384.9906311035156	-312.0833740234376	85.41991424560545	273.7268371582031	-105.7368240356446	44.05002212524413	286.940185546875	-159.1036834716798	39.19988250732421	388.2557983398437	48.37581253051746	1332.688110351562	246.9044494628906	59.90577316284168	1187.613159179688	249.2516632080078	-49.62679290771494	1398.323120117188	75.85868072509764	-84.29073333740241	1246.620727539062	-26.13560867309572	-108.004508972168	1187.171020507812	-43.29969787597658	-59.0506553649903	1186.033325195312	-29.08869743347169	-97.0841445922852	983.9048461914062	-76.85649871826173	-134.9541931152344	917.9531860351562	-55.24522399902346	-91.32731628417973	922.4834594726562	-79.2568817138672	-73.32631683349614	819.7984008789062	-86.92173767089845	-18.45483207702641	820.2513427734375	-30.52490615844727	-27.58757209777848	1392.452880859375	417.3736877441406	-17.34446144104021	1250.583862304688	522.9530029296875	20.35100173950178	1196.180541992188	528.4472045898438	-27.44257164001482	1190.67529296875	547.503173828125	92.70114898681625	994.4244384765625	567.4512939453125	171.2321929931639	980.723388671875	571.3739013671875	134.7228698730467	949.4169311523438	558.0562744140625	211.4357910156248	900.9500732421875	547.7740478515625	236.2199554443358	917.7739868164062	471.5940551757813	
